<svg xmlns="http://www.w3.org/2000/svg" xmlns:xlink="http://www.w3.org/1999/xlink" width="100" zoomAndPan="magnify" viewBox="0 0 75 74.999997" height="100" preserveAspectRatio="xMidYMid meet" version="1.0"><defs><clipPath id="2ba4b49660"><path d="M 7.5 7.5 L 67.5 7.5 L 67.5 67.5 L 7.5 67.5 Z M 7.5 7.5 " clip-rule="nonzero"/></clipPath></defs><g clip-path="url(#2ba4b49660)"><path fill="#000000" d="M 37.5 7.5 C 20.929688 7.5 7.5 20.929688 7.5 37.5 C 7.5 54.070312 20.929688 67.5 37.5 67.5 C 54.070312 67.5 67.5 54.070312 67.5 37.5 C 67.472656 20.929688 54.046875 7.5 37.5 7.5 Z M 53.65625 25.914062 L 47.8125 53.316406 C 47.527344 54.695312 45.914062 55.292969 44.796875 54.460938 L 30.929688 44.125 L 46.253906 30.277344 C 46.253906 30.277344 47.292969 29.421875 47.007812 29.164062 C 46.695312 28.851562 45.550781 29.527344 44.980469 29.914062 C 44.382812 30.355469 26.203125 41.835938 26.203125 41.835938 L 16.980469 38.980469 C 15.941406 38.667969 15.941406 37.242188 17.449219 36.617188 L 51.316406 23.578125 C 52.796875 22.851562 53.96875 24.511719 53.65625 25.914062 Z M 53.65625 25.914062 " fill-opacity="1" fill-rule="nonzero"/></g></svg>